<mxfile host="app.diagrams.net" modified="2023-07-29T18:55:11.572Z" agent="Mozilla/5.0 (Windows NT 10.0; Win64; x64) AppleWebKit/537.36 (KHTML, like Gecko) Chrome/115.0.0.0 Safari/537.36" version="21.6.5" etag="rLNagpspBE0rFF0l_Mob" type="github">
  <diagram name="페이지-1" id="1iqCO5gD9NG9YpX3j4iW">
    <mxGraphModel>
      <root>
        <mxCell id="0" />
        <mxCell id="1" parent="0" />
      </root>
    </mxGraphModel>
  </diagram>
</mxfile>
